<svg id="Layer_1" enable-background="new 0 0 512 512" height="512" viewBox="0 0 512 512" width="512" xmlns="http://www.w3.org/2000/svg"><g><ellipse cx="392.407" cy="221.194" fill="#ffd15b" rx="50.061" ry="57.792" transform="matrix(.866 -.5 .5 .866 -58.025 225.838)"/><path d="m435.761 196.164c-14.376-24.901-42.167-36.463-65.021-28.348 13.457 4.379 25.951 14.206 34.115 28.348 15.933 27.597 9.447 61.278-14.458 75.08-2.336 1.348-4.754 2.45-7.229 3.329 12.804 4.166 26.479 3.4 38.134-3.329 23.906-13.802 30.392-47.483 14.459-75.08z" fill="#ffc344"/><ellipse cx="119.709" cy="224.337" fill="#ffd15b" rx="54.627" ry="63.063" transform="matrix(.866 -.5 .5 .866 -96.13 89.91)"/><path d="m167.018 197.023c-15.399-26.672-44.899-39.31-69.566-31.392 15.228 4.532 29.462 15.459 38.661 31.392 17.386 30.114 10.309 66.867-15.777 81.927-2.982 1.722-6.09 3.069-9.273 4.091 13.554 4.033 27.895 3.001 40.179-4.091 26.084-15.06 33.162-51.812 15.776-81.927z" fill="#ffc344"/><ellipse cx="312.836" cy="212.452" fill="#ffd15b" rx="54.627" ry="63.063" transform="matrix(.866 -.5 .5 .866 -64.314 184.881)"/><path d="m360.144 185.139c-15.399-26.672-44.898-39.31-69.566-31.392 15.228 4.532 29.462 15.459 38.661 31.392 17.386 30.114 10.309 66.867-15.777 81.928-2.982 1.722-6.09 3.069-9.274 4.091 13.554 4.033 27.895 3.001 40.179-4.091 26.086-15.061 33.164-51.814 15.777-81.928z" fill="#ffc344"/><path d="m505.967 52.665-27.164-14.856c-1.946-1.064-3.546-2.665-4.611-4.611l-14.857-27.165c-4.4-8.044-15.953-8.044-20.353 0l-14.857 27.164c-1.064 1.946-2.665 3.546-4.611 4.611l-27.164 14.856c-8.045 4.4-8.045 15.953 0 20.353l27.164 14.856c1.946 1.064 3.546 2.665 4.611 4.611l14.857 27.164c4.4 8.044 15.953 8.044 20.353 0l14.857-27.164c1.064-1.946 2.664-3.546 4.611-4.611l27.164-14.856c8.044-4.399 8.044-15.953 0-20.352z" fill="#ffd15b"/><path d="m505.967 52.665-27.164-14.856c-1.946-1.064-3.546-2.665-4.611-4.611l-14.857-27.165c-4.4-8.044-15.953-8.044-20.353 0l-14.857 27.164c-1.064 1.946-2.665 3.546-4.611 4.611l-27.164 14.856c-8.045 4.4-8.045 15.953 0 20.353l27.164 14.856c1.946 1.064 3.546 2.665 4.611 4.611l14.857 27.164c4.4 8.044 15.953 8.044 20.353 0l14.857-27.164c1.064-1.946 2.664-3.546 4.611-4.611l27.164-14.856c8.044-4.399 8.044-15.953 0-20.352z" fill="#ffd15b"/><path d="m505.967 52.665-27.164-14.857c-1.946-1.064-3.547-2.665-4.611-4.611l-14.857-27.164c-4.4-8.044-15.953-8.044-20.353 0l-5.276 9.647 9.58 17.517c1.064 1.946 2.664 3.546 4.611 4.611l9.567 5.232c15.652 8.56 15.652 31.041 0 39.601l-9.567 5.232c-1.946 1.064-3.546 2.665-4.611 4.611l-9.58 17.517 5.276 9.647c4.4 8.044 15.953 8.044 20.353 0l14.857-27.164c1.064-1.946 2.664-3.546 4.611-4.611l27.164-14.857c8.044-4.398 8.044-15.952 0-20.351z" fill="#ffc344"/><path d="m82.381 90.578-18.703-10.229c-1.34-.733-2.442-1.835-3.175-3.175l-10.229-18.703c-3.029-5.539-10.984-5.539-14.013 0l-10.229 18.703c-.733 1.34-1.835 2.442-3.175 3.175l-18.703 10.229c-5.539 3.029-5.539 10.984 0 14.013l18.703 10.229c1.34.733 2.442 1.835 3.175 3.175l10.229 18.703c3.029 5.539 10.984 5.539 14.013 0l10.229-18.703c.733-1.34 1.835-2.442 3.175-3.175l18.703-10.229c5.539-3.029 5.539-10.984 0-14.013z" fill="#ffd15b"/><path d="m82.381 90.578-18.703-10.229c-1.34-.733-2.442-1.835-3.175-3.175l-10.229-18.703c-3.029-5.539-10.984-5.539-14.013 0l-10.229 18.703c-.733 1.34-1.835 2.442-3.175 3.175l-18.703 10.229c-5.539 3.029-5.539 10.984 0 14.013l18.703 10.229c1.34.733 2.442 1.835 3.175 3.175l10.229 18.703c3.029 5.539 10.984 5.539 14.013 0l10.229-18.703c.733-1.34 1.835-2.442 3.175-3.175l18.703-10.229c5.539-3.029 5.539-10.984 0-14.013z" fill="#ffd15b"/><path d="m82.381 90.578-18.703-10.229c-1.34-.733-2.442-1.835-3.175-3.175l-10.229-18.703c-3.029-5.539-10.984-5.539-14.013 0l-8.446 15.443 1.783 3.26c.733 1.34 1.835 2.442 3.175 3.175l5.366 2.935c11.305 6.183 11.305 22.419 0 28.602l-5.366 2.935c-1.34.733-2.442 1.835-3.175 3.175l-1.783 3.26 8.446 15.443c3.029 5.539 10.984 5.539 14.013 0l10.229-18.703c.733-1.34 1.835-2.442 3.175-3.175l18.703-10.229c5.539-3.03 5.539-10.985 0-14.014z" fill="#ffc344"/><ellipse cx="215.814" cy="192.342" fill="#ffd15b" rx="54.627" ry="63.063" transform="matrix(.866 -.5 .5 .866 -67.257 133.676)"/><path d="m263.122 165.028c-15.399-26.672-44.898-39.31-69.566-31.392 15.228 4.531 29.462 15.459 38.661 31.392 17.387 30.114 10.309 66.867-15.777 81.927-2.982 1.722-6.09 3.069-9.273 4.091 13.554 4.033 27.895 3.001 40.179-4.091 26.085-15.06 33.163-51.813 15.776-81.927z" fill="#ffc344"/><path d="m405.421 512h-298.842c-58.862 0-106.579-47.717-106.579-106.579v-1.611c0-51.838 42.023-93.862 93.862-93.862h324.276c51.838 0 93.862 42.023 93.862 93.862v1.611c0 58.862-47.717 106.579-106.579 106.579z" fill="#dd7f66"/><path d="m418.886 309.949h-30.905c51.425 0 93.114 42.361 93.114 94.616 0 59.335-47.337 107.435-105.73 107.435h30.905c58.393 0 105.73-48.1 105.73-107.435 0-52.255-41.688-94.616-93.114-94.616z" fill="#d6694b"/><path d="m441.593 285.391h-371.186c-22.67 0-41.047-18.377-41.047-41.047v-17.119c0-4.885 3.96-8.845 8.845-8.845h435.59c4.885 0 8.845 3.96 8.845 8.845v17.119c0 22.67-18.377 41.047-41.047 41.047z" fill="#dd7f66"/><path d="m474.005 218.38h-30.905c4.769 0 8.635 4.056 8.635 9.06v15.907c0 23.22-17.942 42.044-40.074 42.044h30.905c22.132 0 40.074-18.824 40.074-42.044v-15.907c0-5.004-3.866-9.06-8.635-9.06z" fill="#d6694b"/><path d="m458.431 313.157h-404.862c-8.534 0-15.453-6.918-15.453-15.453 0-8.534 6.918-15.453 15.453-15.453h404.861c8.534 0 15.453 6.918 15.453 15.453 0 8.534-6.918 15.453-15.452 15.453z" fill="#ffd15b"/><path d="m473.88 297.7c0 4.27-1.73 8.14-4.53 10.93-2.79 2.8-6.65 4.53-10.92 4.53h-404.86c-8.53 0-15.45-6.92-15.45-15.46 0-4.26 1.73-8.13 4.53-10.92 2.79-2.8 6.65-4.53 10.92-4.53h404.86c8.53 0 15.45 6.92 15.45 15.45z" fill="#ffd15b"/><path d="m458.431 282.251h-30.905c8.534 0 15.453 6.919 15.453 15.453s-6.918 15.453-15.453 15.453h30.905c8.534 0 15.453-6.918 15.453-15.453-.001-8.534-6.919-15.453-15.453-15.453z" fill="#ffc344"/><g fill="#f6ab31"><path d="m107.49 282.25-11.48 30.91h-16l11.48-30.91z"/><path d="m161.58 282.25-11.49 30.91h-16l11.49-30.91z"/><path d="m215.66 282.25-11.49 30.91h-16l11.49-30.91z"/><path d="m269.74 282.25-11.48 30.91h-16l11.48-30.91z"/><path d="m323.83 282.25-11.49 30.91h-16l11.49-30.91z"/><path d="m377.91 282.25-11.49 30.91h-16l11.49-30.91z"/><path d="m431.99 282.25-11.48 30.91h-16l11.48-30.91z"/></g></g></svg>