<svg xmlns="http://www.w3.org/2000/svg" xmlns:xlink="http://www.w3.org/1999/xlink" version="1.1" x="0px" y="0px" viewBox="0 0 100 125" style="enable-background:new 0 0 100 100;" xml:space="preserve">
<g>
<path d="M74,7.8c0,0.3-0.3,0.7-0.7,0.9c-0.8,0.4-2.6,1.4-4.2,2.3c-1.4,0.7-1.7,1.2-2.6,2.1c-1,1.1-2.1,3.1-2.1,3.1L54.5,37   c0,0-1.1,1.8-1.3,3c-0.2,2.1,1.1,3.6,1.9,5.1c4.2,7.9,6,20.7,2.2,30.8c-5.5,14.7-19.2,23.3-30.6,19.3c-1-0.3-1.9-0.8-2.8-1.3   c0.1,0,0.1,0.1,0.2,0.1c-9.5-5.2-13.2-19.2-8.1-32.7c4-10.7,14.3-19.8,23.2-22.7c1.6-0.5,3.3-0.8,4.8-2.2c1.4-1.3,2.4-4.3,2.4-4.3   l9.2-19.3c0,0,1.3-2.4,2.4-3.8c0.6-0.8,1.7-1.8,3.2-2.5c1.6-0.8,2.9-1.6,3.7-1.8c1.8-0.7,3.6-0.6,5-0.2c-1.7-0.7-3.9-1-6.2-0.2   c-0.3,0.1-0.8,0.3-1.3,0.6c0.1-0.2,0.2-0.4,0.2-0.6c0-0.8-0.7-1.4-1.5-1.4s-1.5,0.6-1.5,1.4c0,0.7,0.6,1.3,1.3,1.4   c-0.3,0.2-0.6,0.3-0.9,0.5c-0.4,0.2-0.8,0.5-1.2,0.7c0-0.8-0.7-1.4-1.5-1.4c-0.8,0-1.5,0.6-1.5,1.4c0,0.7,0.5,1.3,1.2,1.4   c-0.1,0.1-0.2,0.2-0.3,0.3c-1.1,1.4-2.4,3.8-2.4,3.8l-9.2,19.3c0,0-1,3-2.4,4.3c-1.5,1.4-3.2,1.7-4.8,2.2   c-8.9,2.9-19.2,12-23.2,22.7c-5.4,14.4-0.9,29.2,9.9,33.6c1.3,0.9,2.7,1.7,4.2,2.2c11.4,4,28.1-3.3,33.4-18.1   c4-11.1,0.2-25.2-5.1-32c-1-1.3-2.1-3-1.9-5.1c0.1-1.3,1.3-3,1.3-3l10-20.9c0,0,0.5-0.8,1.1-1.7c0.3,0.2,0.6,0.4,1,0.4   c0.8,0,1.5-0.6,1.5-1.4c0-0.5-0.2-0.9-0.6-1.1c0.2-0.2,0.5-0.4,0.7-0.6c0.2,0.5,0.7,0.9,1.3,0.9c0.8,0,1.5-0.6,1.5-1.4   c0-0.4-0.2-0.7-0.4-1c0.1-0.1,0.2-0.2,0.4-0.3C74.1,10.7,74.2,9.2,74,7.8z"/><path d="M71.3,7.8c-4.7,1.4-7.3,3.8-9.3,7.9c-0.5,1.1-0.9,1.9-0.9,1.9L31.5,81.6L30.2,81l30.3-63.8c1.9-4.7,4.1-8.7,9.3-10.2   c-4.7,1.4-7.3,3.8-9.3,7.9c-0.5,1.1-0.9,1.9-0.9,1.9L29.3,80.6L28.1,80l31-63.6c1.9-4.7,4.1-8.7,9.3-10.3c-4.7,1.4-7.3,3.8-9.3,7.9   c-0.5,1.1-0.9,1.9-0.9,1.9l-31,63.6l-1.3-0.6l31.7-63.5c1.9-4.7,4.1-8.7,9.3-10.3c-4.7,1.4-7.3,3.8-9.3,7.9   c-0.5,1.1-0.9,1.9-0.9,1.9L25,78.5l-0.1-0.1c-0.5-0.2-1.1,0-1.3,0.4l-0.3,0.6c-0.2,0.5,0,1.1,0.5,1.3l7.3,3.5   c0.5,0.2,1.1,0,1.3-0.4l0.3-0.6c0.2-0.4,0.1-0.9-0.2-1.1L62,18C63.9,13.3,66.1,9.3,71.3,7.8z"/><path d="M29.7,65.8c0.6-1.6,1.6-2.9,2.8-3.9l1.8-3.5c-2.9,0.7-5.5,2.8-6.8,5.9c-1.1,2.6-1,5.3,0,7.6l1.4-2.9   C29,68,29.2,66.9,29.7,65.8z"/>
<path d="M40.4,68.4c-0.6,1.6-1.6,2.9-2.7,3.9L36,75.9c2.9-0.7,5.4-2.9,6.7-6c1-2.6,0.9-5.4-0.1-7.6l-1.4,2.9   C41.1,66.3,40.8,67.4,40.4,68.4z"/>
</g>
</svg>