<svg xmlns="http://www.w3.org/2000/svg" xmlns:xlink="http://www.w3.org/1999/xlink" version="1.1" x="0px" y="0px" viewBox="0 0 83.455 124.95374999999999" enable-background="new 0 0 83.455 99.963" xml:space="preserve"><g><path d="M81.821,19.234c-0.021,0.014-4.581,3.245-9.486,7.356c-4.912,4.172-10.135,8.958-11.691,12.999   c-1.336,3.674-1.913,8.626-2.913,12.933c-0.952,4.352-2.471,7.734-4.519,8.472c-5.731,2.354-9.001,3.493-13.825,9.558   c-2.931,3.632-4.056,6.958-4.712,9.652c-0.062,0.19-0.11,0.284-0.678,0.334c-0.905-0.033-2.111-0.688-2.185-2.327   c2.658-4.973,5.076-9.64,6.937-12.147c1.712-2.318,3.703-3.462,5.277-4.055c0.787-0.296,1.467-0.446,1.936-0.523   c0.236-0.037,0.417-0.057,0.534-0.067c0.115-0.009,0.139-0.007,0.139-0.009l-0.051-2.828c-0.192,0.001-5.915,0.141-10.113,5.8   c-2.191,2.982-4.699,7.936-7.494,13.13c-2.778,5.182-5.824,10.577-8.827,14.191c-3.267,3.953-8.071,5.438-11.537,5.43   c-1.586,0.012-2.875-0.339-3.405-0.692c-1.263-0.75-2.427-2.638-2.375-3.875c0.065-0.885,0.25-1.45,1.739-2.041   c0.72-0.271,1.384-0.736,2.377-1.489c2.882-2.238,7.691-6.883,11.768-13.094c3.408-5.225,5.376-12.583,5.992-16.204   c0.167-1.184,1.28-2.738,2.437-3.879c0.569-0.573,1.134-1.059,1.547-1.392c0.417-0.336,0.662-0.504,0.66-0.506l-1.621-2.317V51.64   c-0.044,0.031-1.265,0.885-2.595,2.224c-1.317,1.352-2.817,3.147-3.222,5.407c-0.415,2.572-1.75,7.628-3.785,11.905   c-0.07-0.082-0.132-0.164-0.177-0.245c-0.236-0.365-0.603-1.449-0.824-2.344c-0.236-0.907-0.375-1.657-0.376-1.657l-0.126-0.673   l-0.089-0.047l-0.041-9.896l-1.415,0.006l0.037,9.018c-0.594-0.446-1.366-1.128-1.993-2.007c-0.608-0.841-1.391-2.378-1.973-3.66   c-0.591-1.285-1.003-2.32-1.005-2.322l-0.023-0.057l-0.283-5.167L8.43,52.202l0.19,3.483c-0.383-0.427-0.74-0.908-0.829-1.146   c-0.002-0.003-0.007-0.019-0.029-0.102c-0.42-1.495-1.188-9.011-1.172-12.246c0-0.326,0.009-0.607,0.023-0.824   c-0.003-0.75,0.858-1.856,1.941-2.661c0.524-0.404,1.062-0.737,1.459-0.96c0.398-0.226,0.627-0.329,0.627-0.333   c0.024-0.012,6.875-3.273,9.781-4.808c1.351-0.708,2.001-0.924,3.565-1.405c1.554-0.473,3.901-1.163,8.296-2.711   c5.198-1.954,9.44-8.801,12.861-15.161C48.5,6.96,50.726,1.028,50.74,0.996l-2.648-0.994V0c-0.002,0.004-0.541,1.44-1.497,3.673   c-1.433,3.348-3.796,8.455-6.573,12.951c-2.74,4.508-6.054,8.337-8.678,9.199c-4.354,1.535-6.606,2.194-8.181,2.673   c-1.562,0.473-2.566,0.815-4.061,1.609c-2.79,1.475-9.654,4.744-9.662,4.75c-0.043,0.021-1.281,0.59-2.609,1.608   c-1.293,1.023-2.856,2.488-3.041,4.729c-0.018,0.295-0.027,0.63-0.027,1c0.001,1.929,0.212,4.882,0.482,7.546   c0.137,1.33,0.288,2.579,0.438,3.587c0.166,1.04,0.261,1.699,0.506,2.323c0.641,1.393,1.906,2.565,2.461,3.058   c0.421,1.024,1.81,4.342,3.176,6.273c1.147,1.59,2.509,2.605,3.276,3.103c0.07,0.324,0.167,0.749,0.287,1.214   c0.272,1.018,0.596,2.17,1.143,3.098c0.36,0.562,0.789,1.003,1.214,1.362c-0.131,0.213-0.261,0.428-0.396,0.632   c-2.574,3.928-5.499,7.236-7.945,9.605c-1.224,1.184-2.325,2.133-3.188,2.802C4.38,87.459,3.66,87.866,3.642,87.85   c-2.389,0.76-3.704,2.784-3.64,4.714c0.053,2.589,1.653,4.935,3.695,6.269c1.281,0.788,2.958,1.119,4.915,1.131   c4.204-0.007,9.769-1.724,13.714-6.453c2.73-3.3,5.327-7.691,7.749-12.098c0.167,0.215,0.344,0.417,0.537,0.594   c0.976,0.9,2.191,1.355,3.384,1.359c0.04,0.002,0.08,0.003,0.121,0.003c1.35,0,2.915-0.838,3.305-2.491   c0.622-2.506,1.549-5.28,4.169-8.551c4.645-5.702,6.777-6.222,12.706-8.719c3.783-1.684,5.119-6,6.193-10.449   c1.025-4.495,1.642-9.442,2.811-12.595c0.947-2.78,6.057-7.837,10.852-11.804c4.804-4.028,9.297-7.207,9.303-7.216L81.821,19.234z    M17.389,44.757c0.748-0.378,1.498-0.574,1.496-0.578l-0.36-1.368c-0.028,0.007-0.873,0.229-1.775,0.684   c-0.872,0.463-1.962,1.121-2.111,2.426c-0.114,1.471-0.121,3.361-0.121,3.794c0,0.072,0.002,0.117,0.004,0.131l1.412-0.083   c0-0.002-0.001-0.006-0.001-0.048c0-0.414,0.01-2.295,0.116-3.685C16.021,45.709,16.61,45.126,17.389,44.757z M12.689,42.394   l-0.312-1.38v-0.001c-1.684,0.404-3.983,1.546-4.07,3.868c-0.002,0.277,0.04,0.567,0.125,0.86l1.358-0.393   c-0.049-0.17-0.069-0.322-0.069-0.467C9.635,43.792,11.261,42.691,12.689,42.394z M5.175,92.369L5.175,92.369   c-0.002,0-0.003,0-0.003,0H5.175z M8.093,93.1c0.435,0.266,0.735,0.521,0.92,0.704c0.093,0.092,0.159,0.164,0.196,0.211   c0.039,0.045,0.039,0.05,0.042,0.05l0.377,0.542l4.453-2.696l-0.731-1.209l-3.388,2.05c-0.255-0.244-0.626-0.551-1.13-0.858   c-1.377-0.842-2.742-0.948-3.4-0.951c-0.252,0-0.409,0.019-0.432,0.022l0.176,1.404c0.012-0.001,0.088-0.012,0.256-0.012   C5.935,92.356,7.038,92.45,8.093,93.1z"/></g><text x="0" y="114.963" fill="#000000" font-size="5px" font-weight="bold" font-family="'Helvetica Neue', Helvetica, Arial-Unicode, Arial, Sans-serif">Created by Ana María Lora Macias</text><text x="0" y="119.963" fill="#000000" font-size="5px" font-weight="bold" font-family="'Helvetica Neue', Helvetica, Arial-Unicode, Arial, Sans-serif">from the Noun Project</text></svg>