<svg xmlns="http://www.w3.org/2000/svg" xmlns:xlink="http://www.w3.org/1999/xlink" version="1.1" x="0px" y="0px" viewBox="0 0 93.838 61.25625" enable-background="new 0 0 93.838 49.005" xml:space="preserve"><g><path d="M93.783,22.881c-0.118-0.69-0.435-4.244-1.224-8.095c-0.812-3.88-2.019-8.142-4.327-10.728   C85.654,1.296,80.808,0.027,74.75,0c-5.454,0.002-11.916,1.108-18.563,3.552c-8.982,3.307-19.119,9.255-25.242,13.1l-3.285-3.68   l-1.716,1.531l3.032,3.399c-2.26,1.453-3.621,2.388-3.633,2.394l1.302,1.896c0.008-0.008,4.172-2.865,10.066-6.365   c5.89-3.502,13.501-7.629,20.27-10.116c6.401-2.355,12.626-3.411,17.77-3.409c5.723-0.027,10.082,1.375,11.779,3.306   c1.741,1.871,3.035,5.921,3.777,9.64c0.765,3.75,1.057,7.084,1.208,8.008c0.016,0.102,0.022,0.205,0.022,0.307   c0,0.081-0.015,0.158-0.027,0.236c-0.355-0.047-1.077-0.136-1.592-0.153c-0.065-0.203-0.135-0.771-0.119-1.173   c0-0.343,0.021-0.6,0.019-0.6l-0.996-0.074c-0.003,0.009-0.021,0.292-0.021,0.674c0,0.359,0.015,0.796,0.094,1.188   c0.089,0.339,0.167,0.896,0.872,0.979c0.307-0.001,0.858,0.058,1.276,0.107c-0.338,0.36-0.805,0.591-1.271,0.592   c-0.267,0-0.527-0.065-0.786-0.219c-0.054,0.021-0.634-0.711-1.062-1.741c-0.694-1.546-1.374-3.737-1.864-5.517   c-0.485-1.757-0.787-3.103-0.798-3.144c0.004-0.164,0.01-0.323,0.012-0.49c0-1.148-0.068-2.375-0.194-3.635   c-0.395-4.496-3.17-5.636-3.474-5.654L81,7.158l0.06-0.223l-0.086,0.217c0.115,0.091,1.458,0.496,1.817,3.672   c0.119,1.193,0.184,2.348,0.184,3.405c0.033,2.423-0.434,4.362-0.926,4.849c-0.276,0.367-1.289,0.845-2.211,1.081   c0.218-0.922,0.27-1.886,0.275-2.835c0-0.898-0.051-1.788-0.093-2.619c-0.215-4.308-1.733-6.549-1.828-6.681l-1.883,1.319h-0.002   c0,0,0.002,0,0.025,0.042c0.191,0.312,1.224,2.109,1.391,5.434c0.041,0.842,0.089,1.697,0.089,2.506   c0.01,1.438-0.18,2.699-0.645,3.434c-0.421,0.64-0.96,1.078-2.325,1.184c0.217-0.505,0.433-1.069,0.663-1.752   c0.258-0.782,0.361-1.574,0.361-2.341c-0.028-3.564-2.069-6.655-2.104-6.746l-1.938,1.236h-0.002c0,0,0.095,0.148,0.262,0.454   c0.503,0.905,1.495,3.08,1.483,5.056c0,0.563-0.076,1.108-0.243,1.615c-0.506,1.531-0.947,2.412-1.251,2.779   c-0.327,0.351-0.273,0.284-0.579,0.323c-0.087,0-0.215-0.012-0.378-0.032c-0.014-0.003-0.827-0.098-1.669-0.285   c-0.421-0.093-0.844-0.212-1.126-0.326c-0.093-0.035-0.17-0.072-0.223-0.101c-0.114-0.355-0.314-1.365-0.297-2.1   c0-0.254,0.019-0.488,0.047-0.657c0.338,0.083,0.908,0.288,1.366,0.521c0.647,0.309,1.161,0.619,1.163,0.617l1.185-1.97   c-0.021-0.012-0.603-0.363-1.357-0.722c-0.778-0.354-1.634-0.757-2.616-0.784c-0.334,0.004-0.749,0.056-1.163,0.359   c-0.953,0.852-0.862,1.75-0.925,2.636c0.003,0.168,0.018,0.33,0.026,0.495l-4.898,0.769l-0.278,0.347   c-0.004,0.004-1.436,1.78-4.174,4.693c-2.735,2.912-6.76,6.938-11.89,11.364c-8.685,7.563-24.89,9.348-31.986,9.316   c-0.908,0-1.665-0.03-2.226-0.07c-1.929-0.088-4.066-2.24-5.552-4.594c-0.749-1.155-1.347-2.318-1.755-3.184   c-0.409-0.866-0.617-1.413-0.619-1.415L0,38.269c0.019,0.041,0.947,2.476,2.589,5.021c1.656,2.511,3.975,5.32,7.311,5.638   c0.637,0.048,1.444,0.077,2.399,0.077c7.42-0.031,23.856-1.634,33.488-9.874c9.103-7.853,14.77-14.454,16.067-16.01l4.058-0.637   c0.056,0.169,0.11,0.341,0.179,0.488c0.421,0.722,0.909,0.866,1.376,1.085c1.395,0.546,3.32,0.744,3.368,0.759   c0.189,0.024,0.41,0.048,0.658,0.048c0.034,0.001,0.068,0.002,0.103,0.002c0.574,0,1.221-0.23,1.748-0.651   c0.354,0.031,0.702,0.052,1.037,0.052c0.041,0,0.083,0.001,0.123,0.001c1.698,0,3.069-0.566,3.981-1.488   c0.246-0.034,1.027-0.147,1.956-0.403c1.103-0.322,2.416-0.754,3.354-1.801c0.171-0.213,0.317-0.443,0.452-0.684   c0.052,0.174,0.104,0.35,0.159,0.526c0.414,1.344,0.894,2.73,1.419,3.905c0.56,1.174,1.015,2.134,1.976,2.768   c0.619,0.374,1.303,0.548,1.959,0.548h0.012c2.14-0.01,4.044-1.738,4.066-4.076C93.838,23.34,93.82,23.113,93.783,22.881z    M10.338,45.979c0.204,0,0.412-0.023,0.625-0.064c1.318-0.305,2.221-1.619,2.244-2.946c0.004-0.611-0.223-1.25-0.738-1.721   c-0.418-0.386-0.854-0.602-1.301-0.604c-0.953,0.026-1.398,0.911-1.398,1.668c0,0.398,0.109,0.816,0.369,1.174l0.811-0.586   c-0.12-0.163-0.182-0.375-0.182-0.588c0.012-0.456,0.237-0.668,0.4-0.67c0.099-0.002,0.318,0.058,0.625,0.342   c0.291,0.272,0.411,0.599,0.415,0.984c0.023,0.85-0.726,1.85-1.438,1.965c-0.159,0.031-0.305,0.045-0.431,0.045   c-0.988,0.019-1.466-0.909-1.601-2.227c-0.008-0.089-0.012-0.165-0.012-0.245c-0.045-1.595,1.454-2.233,1.972-3.793L9.73,38.456   c-0.138,0.889-1.959,1.825-2.004,4.051c0,0.104,0.004,0.216,0.016,0.336C7.837,44.277,8.544,45.96,10.338,45.979z"/></g><text x="0" y="64.005" fill="#000000" font-size="5px" font-weight="bold" font-family="'Helvetica Neue', Helvetica, Arial-Unicode, Arial, Sans-serif">Created by Ana María Lora Macias</text><text x="0" y="69.005" fill="#000000" font-size="5px" font-weight="bold" font-family="'Helvetica Neue', Helvetica, Arial-Unicode, Arial, Sans-serif">from the Noun Project</text></svg>